<?xml version="1.0" encoding="utf-8"?>
<!-- Generator: Adobe Illustrator 16.2.1, SVG Export Plug-In . SVG Version: 6.00 Build 0)  -->
<svg version="1.2" baseProfile="tiny" id="Layer_1" xmlns="http://www.w3.org/2000/svg" xmlns:xlink="http://www.w3.org/1999/xlink"
	 x="0px" y="0px" width="288px" height="288px" viewBox="0 0 288 288" preserveAspectRatio="none" xml:space="preserve">
<path d="M264.441,244.076l-68.51-68.51C208.533,158.738,216,137.841,216,115.2c0-55.67-45.131-100.8-100.8-100.8
	c-55.67,0-100.8,45.129-100.8,100.8c0,55.669,45.129,100.8,100.8,100.8c22.641,0,43.539-7.467,60.367-20.068l68.51,68.51
	L264.441,244.076z M115.2,187.199c-39.765,0-72-32.234-72-72c0-39.765,32.235-72,72-72c39.765,0,72,32.235,72,72
	C187.199,154.965,154.965,187.199,115.2,187.199z"/>
</svg>
